<svg width="510" height="510" viewBox="0 0 510 510" fill="none" xmlns="http://www.w3.org/2000/svg">
<rect width="510" height="510" fill="#FAE3E1"/>
<path d="M162.919 274.257C172.446 274.257 181.767 280.4 181.767 293.104C181.767 305.809 172.446 312.164 162.919 312.164C153.598 312.164 144.072 305.809 144.072 293.104C144.072 280.4 153.605 274.257 162.919 274.257ZM195.748 326.564C178.809 326.564 163.139 322.961 155.301 317.669L155.726 317.03C161.018 320.634 173.73 323.805 186.221 323.805C203.16 323.805 220.312 318.087 220.312 299.453C220.312 267.263 144.285 266.837 144.285 214.111C144.285 186.369 175.418 174.508 201.671 174.508C215.014 174.508 227.08 177.473 233.223 182.978L233.01 183.616C229.832 180.02 220.093 177.473 209.289 177.473C193.62 177.473 176.255 183.404 176.255 201.825C176.255 232.746 257.575 235.072 257.575 285.472C257.582 315.974 224.966 326.564 195.748 326.564ZM226.448 187.645C235.556 187.645 244.452 193.788 244.452 205.854C244.452 217.92 235.556 223.858 226.448 223.858C217.553 223.858 208.445 217.927 208.445 205.854C208.445 193.781 217.56 187.645 226.448 187.645Z" fill="#EE6C4D"/>
<path d="M247.608 354.612C247.608 354.612 247.608 353.456 248.105 353.285C250.736 352.292 268.513 324.975 271.144 312.562C270.485 336.899 286.119 352.292 288.75 353.285C289.247 353.448 289.247 354.612 289.247 354.612H247.608ZM314.251 354.612L267.846 246.344C265.54 241.379 264.718 240.882 261.263 239.889C260.767 239.726 260.603 238.733 260.603 238.733H301.086L333.007 315.051L317.046 354.619H314.251V354.612ZM350.293 354.612C350.293 354.612 350.293 353.456 350.79 353.285C353.258 352.292 361.153 352.455 361.153 344.014L353.422 270.015L364.778 238.726H393.578C393.578 238.726 393.578 239.719 393.081 239.882C390.613 240.712 384.69 242.031 384.526 250.309L394.237 343.184C395.72 352.292 404.112 352.292 406.58 353.285C407.077 353.448 407.077 354.612 407.077 354.612H350.293Z" fill="#EE6C4D"/>
<path d="M117.772 253.154C118.99 252.631 120.224 252.61 121.472 253.091C123.251 253.818 124.634 255.33 125.621 257.627C126.462 259.585 126.703 261.552 126.345 263.528C126.764 263.347 127.063 263.243 127.239 263.214C127.553 263.174 127.813 263.394 128.019 263.873L121.816 266.537L121.43 265.638C124.98 263.711 126.119 261.211 124.846 258.137C124.511 257.358 124.067 256.709 123.513 256.19C122.31 255.098 121.009 254.852 119.611 255.452C119.071 255.684 118.628 256.028 118.28 256.485C117.667 257.317 117.347 258.803 117.32 260.944C117.313 263.242 117.293 264.6 117.259 265.017C117.007 267.349 116.041 268.876 114.363 269.597C113.245 270.077 112.094 270.098 110.912 269.659C109.198 268.976 107.878 267.555 106.952 265.397C106.188 263.619 105.891 261.854 106.061 260.101C105.821 260.204 105.623 260.265 105.466 260.285C105.132 260.334 104.862 260.119 104.656 259.639L109.9 257.387L110.286 258.286C109.159 258.747 108.33 259.434 107.8 260.348C107.039 261.716 107.018 263.239 107.739 264.917C108.031 265.596 108.407 266.168 108.867 266.633C109.944 267.709 111.152 267.959 112.49 267.384C112.99 267.17 113.408 266.848 113.744 266.42C114.346 265.617 114.644 264.164 114.64 262.06C114.658 259.733 114.686 258.337 114.722 257.871C114.977 255.49 115.994 253.918 117.772 253.154Z" fill="#519872"/>
<path d="M114.731 248.42C113.322 248.692 112.011 248.669 110.798 248.349C108.252 247.667 106.703 245.896 106.151 243.035C105.928 241.883 105.968 240.768 106.269 239.691C106.705 238.167 107.468 237.3 108.557 237.09C108.685 237.065 108.828 237.06 108.985 237.074C109.663 237.142 110.05 237.543 110.148 238.277C110.176 238.538 110.157 238.785 110.092 239.019C109.944 239.402 109.456 239.74 108.627 240.033C108.276 240.167 108.02 240.272 107.857 240.347C107.006 240.755 106.692 241.536 106.914 242.689C107.059 243.436 107.383 244.082 107.887 244.627C109.11 245.918 111.121 246.294 113.917 245.754C115.497 245.449 116.801 244.865 117.83 244.002C119.181 242.855 119.71 241.524 119.417 240.008C119.384 239.837 119.341 239.669 119.286 239.502C118.765 237.72 117.585 236.597 115.746 236.133L115.873 235.245C116.265 235.324 116.667 235.457 117.08 235.643C118.856 236.474 119.959 237.999 120.388 240.219C120.677 241.713 120.54 243.124 119.976 244.451C119.063 246.598 117.314 247.921 114.731 248.42Z" fill="#519872"/>
<path d="M118.032 225.169C118.031 225.038 118.041 224.93 118.062 224.842C118.103 224.516 118.363 224.351 118.841 224.347L118.902 232.403L118.086 232.409C118.081 231.669 118.022 231.137 117.911 230.812C117.711 230.248 117.111 229.97 116.111 229.977L105.838 230.054L105.857 232.5L105.041 232.506L105.006 227.778L108.234 227.623C107.579 227.345 106.989 226.969 106.464 226.495C105.347 225.481 104.784 224.322 104.775 223.018C104.773 222.822 104.793 222.615 104.835 222.398C105.045 221.396 105.639 220.891 106.618 220.884C106.748 220.883 106.879 220.904 107.009 220.946C107.641 221.116 107.96 221.526 107.964 222.178C107.965 222.309 107.945 222.44 107.902 222.57C107.817 222.875 107.472 223.204 106.866 223.557C106.325 223.865 106.055 224.204 106.058 224.574C106.082 224.9 106.324 225.3 106.785 225.775C107.99 226.983 109.581 227.58 111.56 227.565L118.05 227.517L118.032 225.169Z" fill="#519872"/>
<path d="M121.436 207.053C121.135 208.545 120.009 209.241 118.059 209.142C118.472 209.419 118.846 209.787 119.18 210.248C120.049 211.516 120.337 212.93 120.046 214.49C119.926 215.131 119.694 215.719 119.351 216.252C118.485 217.572 117.24 218.08 115.616 217.776C115.146 217.689 114.72 217.543 114.338 217.338C112.379 216.22 111.869 213.15 112.808 208.128L110.788 207.75C108.703 207.427 107.409 208.257 106.905 210.242C106.745 211.097 106.894 211.778 107.353 212.284C107.482 212.419 107.915 212.709 108.65 213.156C109.225 213.507 109.467 213.929 109.375 214.42C109.355 214.527 109.325 214.632 109.283 214.735C109.061 215.335 108.618 215.573 107.956 215.449C107.592 215.381 107.253 215.185 106.938 214.86C105.978 213.84 105.722 212.134 106.169 209.74C106.205 209.548 106.241 209.355 106.277 209.163C107.019 206.139 108.919 204.912 111.975 205.484L118.739 206.748C119.812 206.926 120.421 206.742 120.568 206.194C120.674 205.506 119.962 204.941 118.429 204.5L118.617 203.673C118.724 203.693 118.84 203.725 118.964 203.771C120.919 204.313 121.743 205.407 121.436 207.053ZM118.961 213.193C119.049 212.723 119.032 212.222 118.91 211.69C118.543 210.339 117.653 209.365 116.238 208.769L113.673 208.289C113.383 209.96 113.252 211.252 113.281 212.164C113.358 213.882 114.112 214.874 115.544 215.142C115.908 215.21 116.245 215.24 116.556 215.232C117.916 215.176 118.717 214.496 118.961 213.193Z" fill="#519872"/>
<path d="M129.15 199.673L130.062 197.58C130.114 197.461 130.168 197.365 130.222 197.294C130.392 197.013 130.697 196.967 131.135 197.158L127.944 204.484L127.196 204.158C127.492 203.48 127.655 202.97 127.685 202.628C127.732 202.031 127.296 201.533 126.379 201.134L111.281 194.556L110.304 196.798L109.556 196.472L111.432 192.167L114.756 193.437C114.387 193.087 114.055 192.705 113.761 192.292C112.643 190.667 112.505 188.887 113.347 186.954C113.894 185.698 114.758 184.805 115.937 184.276C117.66 183.532 119.658 183.656 121.93 184.646C123.924 185.514 125.316 186.809 126.108 188.529C126.923 190.307 126.943 192.083 126.17 193.857C125.465 195.257 124.396 196.297 122.961 196.977L129.15 199.673ZM114.126 188.432C113.814 189.149 113.747 189.903 113.925 190.692C114.339 192.461 115.842 193.911 118.434 195.04C119.55 195.526 120.582 195.798 121.529 195.855C123.396 195.98 124.663 195.275 125.332 193.741C125.566 193.202 125.674 192.656 125.654 192.102C125.563 190.189 124.052 188.594 121.122 187.317C120.305 186.961 119.537 186.71 118.818 186.563C116.446 186.075 114.882 186.698 114.126 188.432Z" fill="#519872"/>
<path d="M133.631 178.77C133.711 178.667 133.786 178.588 133.856 178.532C134.09 178.301 134.396 178.331 134.775 178.623L130.389 184.302L129.744 183.803C130.195 183.218 130.478 182.764 130.591 182.439C130.782 181.872 130.482 181.283 129.69 180.671L121.56 174.392L120.065 176.327L119.419 175.829L122.31 172.086L124.971 173.977C124.635 173.415 124.389 172.827 124.233 172.212C123.856 170.601 124.159 169.16 125.142 167.886C125.634 167.25 126.256 166.782 127.008 166.484C128.665 165.869 130.354 166.225 132.075 167.554L138.476 172.498L139.472 171.208C139.552 171.105 139.627 171.025 139.698 170.97C139.931 170.738 140.238 170.769 140.616 171.061L136.13 176.868L135.485 176.37C135.937 175.785 136.22 175.33 136.333 175.006C136.524 174.439 136.223 173.849 135.432 173.238L130.321 169.291C129.822 168.905 129.315 168.637 128.8 168.486C127.527 168.107 126.485 168.443 125.674 169.492C125.302 169.974 125.082 170.56 125.016 171.251C124.884 172.88 125.599 174.338 127.159 175.626L132.734 179.932L133.631 178.77Z" fill="#519872"/>
<path d="M140.998 161.548C141.582 162.278 142.17 162.894 142.764 163.393C144.834 165.08 146.727 165.238 148.443 163.867C148.766 163.61 149.046 163.316 149.284 162.987C150.454 161.246 149.899 158.949 147.62 156.094C147.227 155.601 146.842 155.172 146.465 154.804C144.26 152.67 142.215 152.356 140.329 153.861C139.921 154.187 139.584 154.567 139.319 155.001C138.336 156.732 138.896 158.914 140.998 161.548ZM139.896 153.163C141.018 152.268 142.283 151.744 143.692 151.593C146.1 151.368 148.159 152.326 149.868 154.467C151.129 156.047 151.688 157.757 151.544 159.597C151.396 161.607 150.506 163.263 148.875 164.566C147.72 165.488 146.408 166.006 144.941 166.12C142.524 166.298 140.46 165.316 138.751 163.176C137.516 161.629 136.987 159.938 137.161 158.101C137.354 156.111 138.265 154.465 139.896 153.163Z" fill="#519872"/>
<path d="M157.376 143.28L155.133 144.257L163.461 153.009L162.74 144.573L159.741 141.361L164.346 139.356L164.672 140.104L162.579 141.015L170.569 149.808L169.396 138.047L167.303 138.958L166.978 138.21L171.403 136.284C171.455 136.403 171.493 136.517 171.516 136.625C171.578 136.931 171.39 137.179 170.951 137.37C170.831 137.422 170.726 137.479 170.635 137.543C170.391 137.744 170.304 138.197 170.373 138.902L171.559 151.511L171.081 151.719C170.742 151.867 170.456 151.944 170.221 151.951C169.736 151.925 169.061 151.437 168.196 150.485L163.693 145.617L164.503 154.583L163.904 154.844C163.586 154.983 163.299 155.06 163.045 155.076C162.528 155.087 161.813 154.616 160.9 153.662L152.801 145.272L151.455 145.858L151.13 145.111L157.05 142.533L157.376 143.28Z" fill="#519872"/>
<path d="M211.166 127.377L211.16 128.225L208.551 128.209L208.437 146.08L210.199 146.092C210.307 146.092 210.416 146.104 210.524 146.126C210.872 146.194 211.044 146.467 211.041 146.945L203.214 146.895L203.219 146.047L205.828 146.064L205.929 130.279L198.289 147.027L197.604 147.022L190.557 131.942L190.468 145.966L192.229 145.977C192.338 145.978 192.446 145.989 192.555 146.012C192.902 146.079 193.075 146.352 193.072 146.83L186.549 146.789L186.554 145.941L189.163 145.958L189.277 128.086L186.668 128.069L186.674 127.221L191.337 127.251L198.802 143.247L205.948 127.344L211.166 127.377Z" fill="#519872"/>
<path d="M225.114 137.44C224.572 137.281 224.024 137.256 223.471 137.365C221.796 137.665 220.554 139 219.744 141.368L223.033 142.437C223.986 142.74 224.739 142.916 225.291 142.966C226.359 143.031 227.047 142.542 227.354 141.499C227.489 141.04 227.531 140.588 227.481 140.142C227.363 138.771 226.574 137.87 225.114 137.44ZM227.668 148.866C227.457 149.121 227.225 149.37 226.973 149.613C225.43 150.927 223.533 151.253 221.28 150.59C219.862 150.173 218.707 149.437 217.816 148.382C216.328 146.584 215.964 144.392 216.725 141.806C217.143 140.387 217.809 139.201 218.724 138.246C220.489 136.408 222.675 135.873 225.282 136.64C226.617 137.033 227.706 137.682 228.55 138.587C229.744 139.845 230.133 141.183 229.715 142.601C229.488 143.373 229.032 143.885 228.346 144.136C227.462 144.443 225.755 144.201 223.222 143.411L219.486 142.244C219.249 143.126 219.107 143.957 219.059 144.736C218.855 147.509 219.848 149.217 222.038 149.862C222.226 149.917 222.427 149.965 222.642 150.005C224.33 150.275 225.773 149.725 226.969 148.355L227.668 148.866Z" fill="#519872"/>
<path d="M236.544 155.454C236.636 155.513 236.722 155.58 236.802 155.657C237.042 155.887 237.039 156.195 236.794 156.58L230.743 152.724L231.181 152.037C231.804 152.434 232.283 152.674 232.616 152.758C233.198 152.897 233.758 152.544 234.295 151.701L239.816 143.037L237.753 141.723L238.191 141.035L242.179 143.576L240.537 146.397C241.036 146.019 241.569 145.727 242.138 145.522C243.713 144.953 245.16 145.089 246.48 145.93C246.828 146.152 247.127 146.433 247.375 146.771C248.225 147.906 248.353 149.302 247.76 150.961C248.141 150.688 248.546 150.456 248.976 150.267C250.649 149.502 252.183 149.564 253.576 150.452C254.218 150.861 254.709 151.406 255.048 152.086C255.798 153.621 255.571 155.332 254.367 157.221L250.021 164.042L251.424 164.936C251.534 165.006 251.62 165.074 251.681 165.139C251.933 165.351 251.93 165.658 251.673 166.062L245.595 162.188L246.033 161.501C246.656 161.898 247.126 162.133 247.441 162.205C247.949 162.297 248.472 161.921 249.01 161.077L252.48 155.632C252.854 155.045 253.095 154.464 253.204 153.889C253.438 152.671 253.088 151.765 252.152 151.169C251.804 150.947 251.379 150.805 250.877 150.743C249.53 150.632 248.283 151.153 247.137 152.304L246.996 152.524L242.65 159.345L243.888 160.134C243.998 160.204 244.083 160.271 244.145 160.337C244.397 160.548 244.394 160.856 244.137 161.26L238.224 157.491L238.662 156.804C239.285 157.201 239.755 157.436 240.07 157.508C240.578 157.6 241.101 157.224 241.639 156.38L245.109 150.935C245.459 150.385 245.701 149.843 245.835 149.309C246.129 148.079 245.818 147.171 244.901 146.587C244.406 146.272 243.794 146.14 243.066 146.191C241.5 146.302 240.175 147.146 239.092 148.725L235.306 154.666L236.544 155.454Z" fill="#519872"/>
<path d="M261.164 166.793C260.454 167.401 259.859 168.011 259.381 168.621C257.767 170.748 257.675 172.646 259.104 174.313C259.373 174.627 259.676 174.897 260.013 175.123C261.793 176.232 264.07 175.598 266.844 173.221C267.323 172.811 267.739 172.411 268.093 172.022C270.149 169.744 270.393 167.689 268.822 165.856C268.483 165.46 268.091 165.137 267.648 164.887C265.884 163.965 263.723 164.6 261.164 166.793ZM269.505 165.4C270.439 166.49 271.006 167.736 271.206 169.139C271.515 171.538 270.629 173.628 268.549 175.411C267.013 176.727 265.324 177.344 263.479 177.264C261.465 177.186 259.779 176.354 258.421 174.769C257.459 173.647 256.896 172.354 256.731 170.892C256.469 168.482 257.379 166.386 259.459 164.603C260.961 163.315 262.633 162.727 264.475 162.838C266.47 162.961 268.147 163.815 269.505 165.4Z" fill="#519872"/>
<path d="M269.394 188.849C269.458 188.963 269.501 189.063 269.525 189.15C269.646 189.456 269.498 189.725 269.08 189.959L265.151 182.927L265.862 182.529C266.223 183.174 266.53 183.613 266.784 183.844C267.231 184.243 267.891 184.198 268.764 183.71L277.732 178.699L276.539 176.563L277.25 176.166L279.557 180.294L276.802 181.983C277.51 181.911 278.208 181.957 278.896 182.12C280.363 182.471 281.414 183.216 282.051 184.355C282.146 184.526 282.228 184.717 282.296 184.928C282.594 185.907 282.316 186.635 281.462 187.112C281.348 187.176 281.224 187.221 281.088 187.246C280.453 187.402 279.976 187.195 279.658 186.626C279.595 186.512 279.55 186.387 279.524 186.252C279.452 185.944 279.596 185.49 279.958 184.889C280.284 184.358 280.357 183.931 280.177 183.609C279.999 183.335 279.594 183.1 278.962 182.905C277.324 182.426 275.641 182.669 273.914 183.634L268.249 186.799L269.394 188.849Z" fill="#519872"/>
<path d="M267.59 198.956C267.685 199.246 267.842 199.515 268.061 199.763C268.827 200.633 270.763 201.199 273.87 201.461L284.403 191.825L283.904 190.307L284.71 190.042L286.693 196.085L285.888 196.349L285.206 194.273L276.684 201.773L287.901 202.485L287.159 200.223L287.965 199.958L289.51 204.668C289.324 204.729 289.163 204.759 289.025 204.759C288.778 204.771 288.586 204.571 288.45 204.158C288.389 203.972 288.315 203.814 288.226 203.683C288.062 203.462 287.657 203.343 287.01 203.326L274.195 202.452C272.93 202.364 271.814 202.204 270.845 201.973C268.448 201.432 266.982 200.346 266.446 198.714C266.297 198.26 266.237 197.799 266.267 197.331C266.32 196.307 266.739 195.666 267.524 195.408C267.586 195.388 267.662 195.375 267.751 195.368C268.363 195.282 268.778 195.569 268.995 196.23C269.076 196.478 269.086 196.715 269.023 196.942C268.946 197.196 268.635 197.538 268.09 197.969C267.648 198.297 267.482 198.626 267.59 198.956Z" fill="#519872"/>
</svg>
